<svg id="svg" version="1.1" xmlns="http://www.w3.org/2000/svg" xmlns:xlink="http://www.w3.org/1999/xlink" width="400" height="261.8296529968454" viewBox="0, 0, 400,261.8296529968454"><g id="svgg"><path id="path0" d="M0.000 130.976 L 0.000 261.952 200.000 261.952 L 400.000 261.952 399.997 155.272 C 399.996 96.598,399.921 48.150,399.832 47.610 C 399.673 46.649,399.644 46.627,398.525 46.627 C 397.682 46.627,397.380 46.524,397.380 46.234 C 397.380 45.990,397.628 45.842,398.035 45.842 C 398.396 45.842,398.690 45.724,398.690 45.580 C 398.690 45.420,397.474 45.318,395.564 45.318 L 392.438 45.318 392.329 46.038 C 392.241 46.617,392.212 46.566,392.181 45.776 C 392.142 44.808,391.807 44.482,391.508 45.121 C 391.386 45.383,391.325 45.383,391.203 45.121 C 391.001 44.688,389.261 44.688,389.256 45.121 C 389.253 45.375,389.206 45.377,389.050 45.131 C 388.919 44.925,387.885 44.783,386.107 44.728 L 383.366 44.642 386.182 44.587 C 387.848 44.554,388.998 44.425,388.998 44.270 C 388.998 44.126,388.880 44.008,388.736 44.008 C 388.592 44.008,388.474 43.713,388.474 43.353 C 388.474 42.717,388.422 42.698,386.640 42.698 C 385.593 42.698,384.807 42.586,384.807 42.436 C 384.807 42.292,385.043 42.174,385.331 42.174 C 385.619 42.174,385.855 42.056,385.855 41.912 C 385.855 41.751,384.269 41.630,381.729 41.597 C 379.266 41.565,378.497 41.508,379.821 41.454 C 381.158 41.401,382.129 41.240,382.264 41.049 C 382.439 40.804,382.519 40.807,382.622 41.061 C 382.835 41.586,383.497 41.438,383.497 40.864 C 383.497 40.387,383.322 40.341,381.532 40.341 C 379.961 40.341,379.568 40.262,379.568 39.948 C 379.568 39.703,379.815 39.555,380.223 39.555 C 380.583 39.555,380.878 39.437,380.878 39.293 C 380.878 39.149,380.347 39.031,379.699 39.031 C 378.826 39.031,378.520 38.929,378.520 38.638 C 378.520 38.420,378.753 38.245,379.044 38.245 C 379.332 38.245,379.568 38.127,379.568 37.983 C 379.568 37.833,378.782 37.721,377.734 37.721 C 376.686 37.721,375.900 37.609,375.900 37.459 C 375.900 37.315,376.195 37.197,376.555 37.197 C 376.963 37.197,377.210 37.049,377.210 36.804 C 377.210 35.983,375.382 36.303,375.341 37.132 C 375.306 37.840,375.303 37.841,375.183 37.197 C 375.117 36.837,374.926 36.445,374.761 36.326 C 374.538 36.165,374.544 36.075,374.787 35.977 C 375.506 35.685,375.113 35.102,374.198 35.102 C 373.456 35.102,373.281 35.002,373.281 34.578 C 373.281 34.193,373.106 34.054,372.626 34.054 C 372.219 34.054,371.971 33.905,371.971 33.661 C 371.971 33.416,372.219 33.268,372.626 33.268 C 372.986 33.268,373.281 33.150,373.281 33.006 C 373.281 32.860,372.582 32.744,371.709 32.744 C 370.487 32.744,370.138 32.657,370.138 32.351 C 370.138 32.135,370.314 31.958,370.530 31.958 C 370.747 31.958,370.923 31.840,370.923 31.696 C 370.923 31.552,370.629 31.434,370.269 31.434 C 369.908 31.434,369.614 31.321,369.614 31.182 C 369.614 31.044,368.582 30.891,367.322 30.843 C 365.102 30.759,365.123 30.754,367.976 30.702 C 370.856 30.650,372.344 30.124,369.614 30.124 C 368.391 30.124,368.304 30.081,368.304 29.470 C 368.304 28.946,368.173 28.815,367.649 28.815 C 367.289 28.815,366.994 28.697,366.994 28.553 C 366.994 28.409,367.289 28.291,367.649 28.291 C 368.056 28.291,368.304 28.142,368.304 27.898 C 368.304 27.601,367.984 27.505,366.994 27.505 C 366.274 27.505,365.684 27.387,365.684 27.243 C 365.684 27.099,365.979 26.981,366.339 26.981 C 366.699 26.981,366.994 26.863,366.994 26.719 C 366.994 26.575,366.464 26.457,365.815 26.457 C 364.942 26.457,364.637 26.355,364.637 26.064 C 364.637 25.846,364.869 25.671,365.160 25.671 C 365.449 25.671,365.684 25.553,365.684 25.409 C 365.684 25.265,365.154 25.147,364.506 25.147 C 363.632 25.147,363.327 25.045,363.327 24.754 C 363.327 24.510,363.574 24.361,363.982 24.361 C 364.342 24.361,364.637 24.244,364.637 24.100 C 364.637 23.955,364.342 23.838,363.982 23.838 C 363.621 23.838,363.327 23.720,363.327 23.576 C 363.327 23.432,363.621 23.314,363.982 23.314 C 364.389 23.314,364.637 23.165,364.637 22.921 C 364.637 22.624,364.316 22.528,363.327 22.528 C 362.606 22.528,362.017 22.410,362.017 22.266 C 362.017 22.122,362.312 22.004,362.672 22.004 C 363.079 22.004,363.327 21.855,363.327 21.611 C 363.327 21.367,363.079 21.218,362.672 21.218 C 362.192 21.218,362.017 21.078,362.017 20.694 C 362.017 19.237,361.504 20.431,361.426 22.069 L 361.335 23.969 361.283 22.069 C 361.254 21.013,361.115 20.170,360.969 20.170 C 360.593 20.170,360.645 19.457,361.035 19.275 C 361.297 19.153,361.297 19.092,361.035 18.970 C 360.855 18.886,360.707 18.532,360.707 18.184 C 360.707 17.683,360.570 17.551,360.052 17.551 C 359.692 17.551,359.398 17.433,359.398 17.289 C 359.398 17.145,359.162 17.027,358.874 17.027 C 358.585 17.027,358.348 17.174,358.346 17.354 C 358.343 17.597,358.291 17.603,358.147 17.376 C 358.040 17.207,357.541 17.020,357.038 16.959 L 356.123 16.849 357.105 16.807 L 358.088 16.765 358.088 14.669 C 358.088 12.748,358.044 12.574,357.564 12.574 C 357.273 12.574,357.040 12.399,357.040 12.181 C 357.040 11.962,357.273 11.788,357.564 11.788 C 357.852 11.788,358.088 11.670,358.088 11.526 C 358.088 11.382,357.852 11.264,357.564 11.264 C 357.273 11.264,357.040 11.089,357.040 10.871 C 357.040 10.653,357.273 10.478,357.564 10.478 C 357.852 10.478,358.088 10.360,358.088 10.216 C 358.088 10.072,357.852 9.954,357.564 9.954 C 357.180 9.954,357.040 9.780,357.040 9.299 C 357.040 8.775,356.909 8.644,356.385 8.644 C 356.025 8.644,355.730 8.527,355.730 8.382 C 355.730 8.238,356.025 8.120,356.385 8.120 C 356.793 8.120,357.040 7.972,357.040 7.728 C 357.040 7.483,356.793 7.335,356.385 7.335 C 356.025 7.335,355.730 7.217,355.730 7.073 C 355.730 6.929,356.025 6.811,356.385 6.811 C 358.163 6.811,356.770 6.281,354.879 6.237 C 353.079 6.196,352.969 6.172,354.224 6.093 C 355.052 6.041,355.730 5.887,355.730 5.750 C 355.730 5.613,356.025 5.501,356.385 5.501 C 356.745 5.501,357.040 5.383,357.040 5.239 C 357.040 5.095,356.568 4.977,355.992 4.977 C 355.235 4.977,354.944 4.868,354.944 4.584 C 354.944 4.368,355.121 4.191,355.337 4.191 C 355.553 4.191,355.730 4.073,355.730 3.929 C 355.730 3.785,355.553 3.667,355.337 3.667 C 355.121 3.667,354.944 3.556,354.944 3.419 C 354.944 3.283,354.325 3.128,353.569 3.075 C 352.281 2.984,352.306 2.975,353.962 2.930 C 355.574 2.886,356.601 2.358,355.075 2.358 C 354.715 2.358,354.420 2.240,354.420 2.096 C 354.420 1.952,354.715 1.834,355.075 1.834 C 355.483 1.834,355.730 1.685,355.730 1.441 C 355.730 1.196,355.483 1.048,355.075 1.048 C 354.715 1.048,354.420 0.930,354.420 0.786 C 354.420 0.642,354.715 0.524,355.075 0.524 C 355.435 0.524,355.730 0.406,355.730 0.262 C 355.730 0.088,296.267 0.000,177.865 0.000 L 0.000 0.000 0.000 130.976 M358.350 14.014 C 358.350 14.233,358.583 14.407,358.874 14.407 C 359.165 14.407,359.398 14.233,359.398 14.014 C 359.398 13.796,359.165 13.621,358.874 13.621 C 358.583 13.621,358.350 13.796,358.350 14.014 M358.350 15.848 C 358.350 16.760,358.356 16.765,359.528 16.765 C 360.177 16.765,360.707 16.647,360.707 16.503 C 360.707 16.359,360.413 16.241,360.052 16.241 C 359.528 16.241,359.398 16.110,359.398 15.586 C 359.398 15.106,359.258 14.931,358.874 14.931 C 358.449 14.931,358.350 15.106,358.350 15.848 M375.377 35.494 C 375.377 35.711,375.494 35.887,375.639 35.887 C 375.783 35.887,375.900 35.711,375.900 35.494 C 375.900 35.278,375.783 35.102,375.639 35.102 C 375.494 35.102,375.377 35.278,375.377 35.494 M384.021 40.602 C 384.021 40.747,384.198 40.864,384.414 40.864 C 384.630 40.864,384.807 40.747,384.807 40.602 C 384.807 40.458,384.630 40.341,384.414 40.341 C 384.198 40.341,384.021 40.458,384.021 40.602 M389.260 43.091 C 389.260 43.307,389.378 43.484,389.522 43.484 C 389.666 43.484,389.784 43.307,389.784 43.091 C 389.784 42.875,389.666 42.698,389.522 42.698 C 389.378 42.698,389.260 42.875,389.260 43.091 M389.260 44.270 C 389.260 44.414,389.908 44.532,390.701 44.532 C 391.493 44.532,392.141 44.414,392.141 44.270 C 392.141 44.126,391.493 44.008,390.701 44.008 C 389.908 44.008,389.260 44.126,389.260 44.270 M396.595 46.234 C 396.595 46.451,396.477 46.627,396.333 46.627 C 396.189 46.627,396.071 46.451,396.071 46.234 C 396.071 46.018,396.189 45.842,396.333 45.842 C 396.477 45.842,396.595 46.018,396.595 46.234 M197.708 93.423 C 199.401 94.956,202.815 98.026,205.295 100.245 L 209.804 104.279 209.879 106.756 L 209.954 109.233 212.131 107.924 C 214.827 106.302,214.293 106.151,216.901 109.271 L 219.122 111.928 219.253 123.613 L 219.384 135.298 222.217 135.372 C 224.974 135.445,225.048 135.463,224.968 136.027 L 224.885 136.608 200.000 136.608 L 175.115 136.608 175.031 136.018 C 174.948 135.438,174.990 135.429,177.847 135.429 L 180.747 135.429 180.747 122.363 L 180.747 109.297 181.901 108.351 C 182.536 107.831,184.614 106.048,186.518 104.390 C 190.473 100.946,190.168 101.069,191.586 102.351 L 192.665 103.326 192.736 96.981 L 192.806 90.635 193.718 90.635 C 194.510 90.635,195.037 91.003,197.708 93.423 M194.368 113.790 L 194.368 135.429 196.067 135.429 L 197.766 135.429 197.835 127.272 L 197.904 119.115 201.310 117.208 L 204.715 115.302 204.715 108.417 L 204.715 101.531 201.572 98.681 C 199.843 97.113,197.515 95.003,196.398 93.991 L 194.368 92.151 194.368 113.790 M207.728 103.340 C 208.216 103.844,208.675 104.257,208.747 104.257 C 208.819 104.257,208.478 103.844,207.990 103.340 C 207.501 102.836,207.042 102.423,206.970 102.423 C 206.898 102.423,207.239 102.836,207.728 103.340 M185.658 106.814 L 182.056 109.878 182.056 122.654 L 182.056 135.429 185.855 135.429 L 189.653 135.429 189.653 119.581 C 189.653 110.864,189.565 103.736,189.456 103.741 C 189.348 103.745,187.639 105.128,185.658 106.814 M193.646 120.420 L 193.582 135.929 191.814 136.021 L 190.046 136.112 191.822 136.163 C 193.042 136.199,193.638 136.112,193.724 135.887 C 193.793 135.707,193.818 128.664,193.779 120.236 L 193.709 104.912 193.646 120.420 M214.340 121.742 L 214.407 136.084 216.503 136.100 L 218.599 136.116 216.564 136.024 L 214.529 135.932 214.599 121.666 C 214.638 113.820,214.580 107.400,214.471 107.400 C 214.361 107.400,214.302 113.854,214.340 121.742 M211.591 109.774 L 209.823 110.835 209.823 123.132 L 209.823 135.429 211.788 135.429 L 213.752 135.429 213.752 122.069 C 213.752 114.722,213.664 108.711,213.556 108.711 C 213.448 108.712,212.564 109.190,211.591 109.774 M201.637 118.574 L 199.083 120.022 199.083 127.734 L 199.083 135.447 201.899 135.372 L 204.715 135.298 204.784 126.195 C 204.838 118.994,204.784 117.096,204.522 117.109 C 204.340 117.118,203.042 117.777,201.637 118.574 M207.204 135.953 L 205.239 136.120 207.123 136.168 C 208.159 136.194,209.079 136.097,209.168 135.953 C 209.257 135.809,209.294 135.712,209.249 135.738 C 209.205 135.764,208.284 135.861,207.204 135.953 M162.068 149.331 C 164.504 150.795,164.764 151.718,164.766 158.900 C 164.768 167.604,163.913 168.828,157.826 168.828 C 151.744 168.828,150.750 167.410,150.758 158.743 C 150.764 151.500,151.310 150.069,154.521 148.874 C 156.194 148.251,160.730 148.525,162.068 149.331 M191.546 150.098 C 191.939 150.891,192.713 152.600,193.265 153.897 C 193.817 155.193,194.401 156.549,194.563 156.909 C 194.796 157.428,194.860 156.691,194.874 153.360 C 194.894 148.552,194.905 148.527,196.888 148.527 C 199.286 148.527,199.083 147.580,199.083 158.782 L 199.083 168.719 197.105 168.642 L 195.128 168.566 194.195 166.470 C 192.722 163.161,191.765 161.034,191.365 160.183 C 191.032 159.473,190.995 159.844,190.979 164.058 L 190.963 168.719 188.933 168.642 L 186.902 168.566 186.833 158.874 C 186.754 147.715,186.580 148.451,189.259 148.581 L 190.832 148.657 191.546 150.098 M226.612 149.387 C 228.515 150.514,229.434 152.673,229.231 155.534 C 229.215 155.762,228.658 155.861,227.395 155.861 C 225.024 155.861,224.754 155.739,224.754 154.669 C 224.754 153.044,221.590 152.215,220.301 153.504 C 219.417 154.387,219.507 162.949,220.410 163.852 C 222.255 165.697,224.501 164.612,224.885 161.690 L 225.066 160.314 227.108 160.314 C 229.530 160.314,229.611 160.430,229.228 163.360 C 228.675 167.593,226.586 169.114,221.600 168.914 C 218.747 168.799,217.330 168.144,216.110 166.373 L 215.455 165.422 215.455 158.743 L 215.455 152.063 216.154 151.052 C 217.942 148.463,223.549 147.571,226.612 149.387 M241.707 148.737 C 242.047 148.953,242.729 150.996,243.606 154.420 C 243.902 155.573,244.490 157.813,244.914 159.398 C 247.669 169.698,247.654 168.697,245.050 168.697 L 243.111 168.697 242.826 167.583 C 242.669 166.971,242.383 166.058,242.190 165.553 L 241.840 164.637 239.797 164.637 L 237.754 164.637 237.317 166.368 C 236.717 168.749,236.778 168.697,234.578 168.697 C 232.437 168.697,232.216 168.558,232.633 167.475 C 232.791 167.066,233.255 165.435,233.665 163.851 C 234.075 162.266,234.782 159.614,235.235 157.957 C 235.689 156.300,236.351 153.766,236.708 152.325 C 237.608 148.690,237.740 148.526,239.757 148.531 C 240.654 148.533,241.532 148.626,241.707 148.737 M262.585 148.686 C 263.100 148.883,263.182 152.168,262.685 152.665 C 262.498 152.852,261.597 152.980,260.462 152.980 L 258.554 152.980 258.485 160.773 L 258.415 168.566 256.254 168.642 L 254.093 168.718 254.093 160.859 L 254.093 153.001 251.932 152.925 L 249.771 152.849 249.693 151.057 C 249.577 148.403,249.260 148.527,256.199 148.527 C 259.484 148.527,262.357 148.598,262.585 148.686 M140.606 156.836 L 140.676 164.752 144.012 164.825 L 147.348 164.898 147.348 166.732 L 147.348 168.566 141.912 168.637 L 136.477 168.707 136.477 158.737 L 136.477 148.766 138.507 148.843 L 140.537 148.919 140.606 156.836 M177.797 149.116 C 177.938 149.296,178.370 150.681,178.756 152.194 C 179.403 154.728,179.781 156.173,181.634 163.196 C 181.995 164.565,182.475 166.267,182.700 166.979 C 183.219 168.620,183.079 168.738,180.721 168.644 L 178.782 168.566 178.264 166.526 L 177.746 164.486 175.644 164.561 L 173.543 164.637 172.988 166.601 L 172.432 168.566 170.434 168.642 C 168.590 168.713,168.435 168.678,168.435 168.200 C 168.435 167.508,169.173 164.248,169.479 163.589 C 169.612 163.301,170.011 161.886,170.364 160.445 C 170.909 158.222,171.548 155.820,173.206 149.771 L 173.476 148.788 175.507 148.788 C 176.821 148.788,177.630 148.904,177.797 149.116 M254.024 150.817 L 256.181 150.905 256.254 158.819 L 256.328 166.732 256.389 158.819 L 256.451 150.906 258.481 150.817 C 259.597 150.768,258.566 150.728,256.189 150.728 C 253.811 150.729,252.837 150.768,254.024 150.817 M156.719 153.007 C 155.498 153.363,155.252 154.054,155.125 157.485 C 154.912 163.252,155.472 164.777,157.799 164.759 C 160.086 164.741,160.576 163.703,160.576 158.870 C 160.576 153.501,159.682 152.141,156.719 153.007 M175.276 158.219 C 175.109 158.867,174.855 159.604,174.713 159.856 C 174.486 160.260,174.583 160.314,175.526 160.314 L 176.597 160.314 176.414 159.463 C 176.314 158.995,176.085 158.258,175.906 157.826 L 175.581 157.040 175.276 158.219 M239.425 158.258 C 239.263 158.885,239.071 159.604,238.998 159.856 C 238.887 160.237,239.037 160.314,239.889 160.314 L 240.914 160.314 240.407 158.808 C 239.763 156.896,239.776 156.903,239.425 158.258 " stroke="none" fill="#324883" fill-rule="evenodd"></path><path id="path1" d="M205.501 118.795 L 205.501 135.953 207.269 135.953 L 209.037 135.953 209.037 120.353 L 209.037 104.753 207.433 103.261 C 206.550 102.440,205.754 101.739,205.664 101.703 C 205.575 101.667,205.501 109.358,205.501 118.795 M190.439 119.319 L 190.439 135.953 191.945 135.953 L 193.451 135.953 193.394 120.451 L 193.337 104.950 192.042 103.818 C 191.330 103.195,190.678 102.685,190.593 102.685 C 190.508 102.685,190.439 110.170,190.439 119.319 M214.545 121.873 L 214.538 135.953 216.503 135.953 L 218.468 135.953 218.458 124.100 L 218.448 112.246 217.344 110.955 C 216.738 110.245,215.861 109.243,215.397 108.729 L 214.552 107.793 214.545 121.873 M154.692 149.173 C 151.697 149.977,151.149 151.458,151.149 158.743 C 151.149 166.161,151.767 167.702,155.023 168.399 C 160.006 169.467,163.537 168.041,164.235 164.679 C 164.733 162.279,164.503 152.571,163.923 151.505 C 162.619 149.109,158.657 148.108,154.692 149.173 M219.132 149.156 C 216.128 150.001,215.590 151.462,215.588 158.775 C 215.585 167.322,216.404 168.545,222.135 168.559 C 227.008 168.571,228.640 167.211,228.884 162.938 L 229.018 160.576 227.148 160.576 L 225.278 160.576 225.278 161.559 C 225.277 164.653,221.440 166.225,219.842 163.787 C 219.044 162.569,219.167 154.302,219.996 153.419 C 221.707 151.597,225.278 152.708,225.278 155.062 C 225.278 155.553,225.438 155.599,227.148 155.599 L 229.017 155.599 228.878 153.865 C 228.549 149.770,224.282 147.708,219.132 149.156 M136.739 158.743 L 136.739 168.435 141.847 168.435 L 146.955 168.435 146.955 166.740 L 146.955 165.046 143.746 164.972 L 140.537 164.898 140.468 156.974 L 140.398 149.050 138.569 149.050 L 136.739 149.050 136.739 158.743 M173.300 150.426 C 173.086 151.182,172.679 152.685,172.395 153.766 C 172.111 154.846,171.466 157.263,170.962 159.136 C 170.458 161.009,169.750 163.661,169.389 165.029 C 169.027 166.398,168.650 167.730,168.551 167.989 C 168.385 168.419,168.533 168.453,170.294 168.381 L 172.218 168.304 172.750 166.470 C 173.486 163.928,173.424 163.982,175.602 163.982 C 177.888 163.982,177.977 164.058,178.555 166.510 L 179.009 168.435 180.794 168.435 C 183.066 168.435,183.142 169.510,180.093 158.481 C 179.327 155.708,178.235 151.636,177.864 150.164 L 177.583 149.050 175.636 149.050 L 173.689 149.050 173.300 150.426 M187.033 158.743 L 187.033 168.435 188.867 168.435 L 190.701 168.435 190.701 163.763 C 190.701 158.199,190.757 158.086,192.065 161.035 C 192.624 162.296,193.190 163.563,193.324 163.851 C 193.458 164.139,193.976 165.288,194.477 166.405 L 195.386 168.435 197.235 168.435 L 199.083 168.435 199.083 158.731 L 199.083 149.027 197.184 149.104 L 195.285 149.181 195.154 153.897 L 195.023 158.612 194.077 156.516 C 193.557 155.363,192.623 153.212,192.002 151.735 L 190.872 149.050 188.953 149.050 L 187.033 149.050 187.033 158.743 M237.384 151.070 C 237.088 152.192,236.414 154.702,235.885 156.647 C 235.357 158.592,234.709 161.009,234.446 162.017 C 234.182 163.026,233.721 164.732,233.421 165.810 C 232.656 168.557,232.597 168.435,234.682 168.435 L 236.490 168.435 236.811 167.060 C 237.513 164.057,237.583 163.982,239.651 163.982 C 241.662 163.982,242.305 164.136,242.305 164.620 C 242.305 164.797,242.552 165.727,242.853 166.688 L 243.402 168.435 245.229 168.435 C 246.848 168.435,247.040 168.383,246.915 167.976 C 246.837 167.724,246.350 165.927,245.832 163.982 C 245.314 162.037,244.476 158.913,243.971 157.040 C 243.465 155.167,242.792 152.633,242.475 151.408 L 241.899 149.181 239.911 149.106 L 237.922 149.030 237.384 151.070 M249.902 150.753 L 249.902 152.456 252.128 152.456 L 254.355 152.456 254.355 160.457 L 254.355 168.458 256.254 168.381 L 258.153 168.304 258.223 160.380 L 258.292 152.456 260.515 152.456 L 262.737 152.456 262.737 150.753 L 262.737 149.050 256.320 149.050 L 249.902 149.050 249.902 150.753 M160.877 150.904 C 162.677 151.822,162.921 152.745,162.928 158.636 C 162.934 163.358,162.900 163.701,162.331 164.778 C 160.721 167.822,155.078 167.982,153.384 165.033 C 152.219 163.005,152.552 153.096,153.831 151.728 C 155.404 150.046,158.489 149.685,160.877 150.904 M176.679 153.111 C 177.072 154.407,177.665 156.352,177.998 157.433 C 178.749 159.876,180.490 165.765,180.670 166.470 C 181.056 167.989,179.952 166.005,179.504 164.375 L 178.999 162.541 175.622 162.541 L 172.244 162.541 171.605 164.702 C 171.254 165.891,170.855 166.863,170.718 166.863 C 170.403 166.863,170.502 166.417,171.702 162.410 C 172.772 158.841,173.574 156.094,174.494 152.849 C 175.408 149.622,175.631 149.649,176.679 153.111 M224.544 150.766 C 225.970 151.252,226.782 152.050,227.010 153.189 C 227.239 154.336,226.712 154.279,226.328 153.115 C 225.407 150.325,220.046 150.042,218.276 152.691 C 217.707 153.544,217.682 153.805,217.682 158.943 L 217.682 164.305 218.664 165.284 C 221.379 167.991,226.850 166.242,226.850 162.668 C 226.850 162.235,226.934 162.127,227.123 162.316 C 227.458 162.651,227.085 164.501,226.503 165.389 C 225.493 166.931,221.607 167.531,219.316 166.498 C 217.335 165.605,217.103 164.720,217.204 158.423 C 217.309 151.848,217.436 151.549,220.563 150.530 C 221.396 150.258,223.403 150.378,224.544 150.766 M241.072 153.570 C 241.572 155.190,242.419 157.990,242.953 159.790 C 243.487 161.591,244.149 163.766,244.424 164.622 C 244.979 166.349,245.040 166.863,244.689 166.863 C 244.559 166.863,244.308 166.244,244.132 165.488 C 243.955 164.731,243.653 163.726,243.461 163.253 L 243.111 162.394 239.782 162.468 L 236.453 162.541 235.908 164.617 C 235.609 165.758,235.204 166.745,235.009 166.809 C 234.767 166.888,234.698 166.768,234.792 166.436 C 234.868 166.167,235.282 164.768,235.712 163.327 C 236.142 161.886,236.866 159.411,237.320 157.826 C 239.873 148.921,239.697 149.121,241.072 153.570 M260.756 150.595 C 260.989 150.972,260.202 151.146,258.263 151.146 L 256.451 151.146 256.451 159.020 C 256.451 164.203,256.361 166.839,256.189 166.732 C 256.024 166.630,255.927 163.717,255.927 158.858 L 255.927 151.146 254.114 151.146 C 252.175 151.146,251.388 150.972,251.621 150.595 C 251.701 150.466,253.756 150.360,256.189 150.360 C 258.621 150.360,260.676 150.466,260.756 150.595 M138.834 158.473 L 138.834 166.324 142.110 166.397 C 146.614 166.498,146.450 166.994,141.912 166.994 L 138.441 166.994 138.372 158.808 C 138.326 153.403,138.393 150.622,138.569 150.622 C 138.742 150.622,138.834 153.340,138.834 158.473 M192.927 157.961 L 196.595 165.295 196.664 157.959 C 196.708 153.367,196.830 150.622,196.992 150.622 C 197.155 150.622,197.250 153.589,197.250 158.743 C 197.250 163.209,197.148 166.863,197.023 166.863 C 196.899 166.863,195.160 163.622,193.159 159.661 L 189.522 152.458 189.391 159.574 C 189.292 164.938,189.179 166.716,188.933 166.798 C 188.675 166.883,188.605 165.162,188.605 158.764 C 188.605 152.424,188.678 150.623,188.933 150.625 C 189.113 150.627,190.910 153.928,192.927 157.961 M155.468 151.134 C 153.625 151.896,153.241 153.205,153.247 158.694 C 153.256 165.416,153.871 166.449,157.872 166.463 C 159.907 166.471,160.650 166.126,161.739 164.667 C 162.439 163.729,162.573 153.869,161.902 152.617 C 161.090 151.100,157.534 150.280,155.468 151.134 M175.358 152.091 C 175.269 152.364,175.089 152.881,174.957 153.242 C 174.825 153.602,174.434 154.898,174.086 156.123 C 173.739 157.348,173.218 159.145,172.928 160.118 L 172.401 161.886 175.526 161.886 C 177.245 161.886,178.651 161.823,178.651 161.746 C 178.651 161.669,178.221 160.166,177.696 158.406 C 177.171 156.646,176.526 154.453,176.262 153.532 C 175.711 151.609,175.582 151.404,175.358 152.091 M239.595 151.932 C 239.526 152.148,238.980 154.034,238.381 156.123 C 237.782 158.212,237.182 160.263,237.048 160.681 C 236.914 161.099,236.804 161.541,236.804 161.663 C 236.804 161.786,238.208 161.886,239.924 161.886 L 243.043 161.886 242.537 160.249 C 242.259 159.348,241.612 157.200,241.100 155.475 C 240.046 151.922,239.791 151.321,239.595 151.932 M159.875 153.221 C 161.271 154.584,161.216 162.935,159.802 164.349 C 158.923 165.228,156.628 165.129,155.671 164.172 L 154.944 163.446 154.944 158.758 C 154.944 154.185,154.960 154.054,155.566 153.408 C 156.540 152.371,158.899 152.268,159.875 153.221 M176.816 160.249 C 176.817 160.463,176.408 160.576,175.639 160.576 C 174.990 160.576,174.460 160.466,174.460 160.331 C 174.460 159.899,175.276 156.548,175.450 156.266 C 175.606 156.013,176.813 159.530,176.816 160.249 M240.571 158.076 C 241.194 160.560,241.189 160.576,239.786 160.576 C 238.664 160.576,238.587 160.534,238.719 159.987 C 238.928 159.120,239.456 157.090,239.570 156.713 C 239.795 155.971,240.170 156.483,240.571 158.076 " stroke="none" fill="#f5f6f8" fill-rule="evenodd"></path><path id="path2" d="M192.736 96.981 L 192.665 103.326 191.586 102.351 C 190.168 101.069,190.473 100.946,186.518 104.390 C 184.614 106.048,182.536 107.831,181.901 108.351 L 180.747 109.297 180.747 122.363 L 180.747 135.429 177.847 135.429 C 174.990 135.429,174.948 135.438,175.031 136.018 L 175.115 136.608 200.000 136.608 L 224.885 136.608 224.968 136.027 C 225.048 135.463,224.974 135.445,222.217 135.372 L 219.384 135.298 219.253 123.613 L 219.122 111.928 216.901 109.271 C 214.293 106.151,214.827 106.302,212.131 107.924 L 209.954 109.233 209.879 106.756 L 209.804 104.279 205.295 100.245 C 202.815 98.026,199.401 94.956,197.708 93.423 C 195.037 91.003,194.510 90.635,193.718 90.635 L 192.806 90.635 192.736 96.981 M201.572 98.681 L 204.715 101.531 204.715 108.417 L 204.715 115.302 201.310 117.208 L 197.904 119.115 197.835 127.272 L 197.766 135.429 196.067 135.429 L 194.368 135.429 194.368 113.790 L 194.368 92.151 196.398 93.991 C 197.515 95.003,199.843 97.113,201.572 98.681 M207.537 102.970 L 209.303 104.564 209.236 120.324 L 209.168 136.084 207.269 136.161 L 205.370 136.238 205.370 118.806 C 205.370 109.219,205.460 101.375,205.570 101.375 C 205.680 101.375,206.565 102.093,207.537 102.970 M192.180 103.626 L 193.848 105.090 193.781 120.587 L 193.713 136.084 191.945 136.161 L 190.177 136.239 190.177 119.200 C 190.177 109.829,190.252 102.161,190.344 102.161 C 190.436 102.161,191.262 102.820,192.180 103.626 M189.653 119.581 L 189.653 135.429 185.855 135.429 L 182.056 135.429 182.056 122.654 L 182.056 109.878 185.658 106.814 C 187.639 105.128,189.348 103.745,189.456 103.741 C 189.565 103.736,189.653 110.864,189.653 119.581 M216.699 109.822 L 218.730 112.207 218.730 124.221 L 218.730 136.236 216.568 136.160 L 214.407 136.084 214.340 121.742 C 214.302 113.854,214.361 107.408,214.471 107.419 C 214.580 107.429,215.583 108.510,216.699 109.822 M213.752 122.069 L 213.752 135.429 211.788 135.429 L 209.823 135.429 209.823 123.132 L 209.823 110.835 211.591 109.774 C 212.564 109.190,213.448 108.712,213.556 108.711 C 213.664 108.711,213.752 114.722,213.752 122.069 M204.784 126.195 L 204.715 135.298 201.899 135.372 L 199.083 135.447 199.083 127.734 L 199.083 120.022 201.637 118.574 C 203.042 117.777,204.340 117.118,204.522 117.109 C 204.784 117.096,204.838 118.994,204.784 126.195 " stroke="none" fill="#050607" fill-rule="evenodd"></path><path id="path3" d="M205.493 118.664 C 205.493 127.957,205.526 131.758,205.566 127.112 C 205.606 122.466,205.606 114.862,205.566 110.216 C 205.526 105.570,205.493 109.371,205.493 118.664 M190.237 119.253 C 190.270 128.510,190.329 133.373,190.368 130.059 C 190.549 114.434,190.552 102.423,190.373 102.423 C 190.265 102.423,190.204 109.997,190.237 119.253 M207.466 103.340 C 207.954 103.844,208.413 104.257,208.485 104.257 C 208.557 104.257,208.216 103.844,207.728 103.340 C 207.239 102.836,206.780 102.423,206.708 102.423 C 206.636 102.423,206.977 102.836,207.466 103.340 M193.443 120.629 C 193.443 128.985,193.476 132.441,193.517 128.309 C 193.557 124.178,193.557 117.341,193.517 113.116 C 193.476 108.892,193.443 112.272,193.443 120.629 M218.588 124.165 C 218.588 130.720,218.622 133.402,218.664 130.124 C 218.705 126.847,218.705 121.483,218.664 118.206 C 218.622 114.928,218.588 117.610,218.588 124.165 M157.105 148.716 C 157.574 148.774,158.340 148.774,158.808 148.716 C 159.276 148.658,158.893 148.610,157.957 148.610 C 157.020 148.610,156.637 148.658,157.105 148.716 M221.278 148.716 C 221.743 148.773,222.568 148.774,223.111 148.718 C 223.655 148.661,223.274 148.614,222.266 148.612 C 221.257 148.611,220.813 148.658,221.278 148.716 M136.596 149.117 C 136.527 149.298,136.501 153.748,136.539 159.006 L 136.608 168.566 141.847 168.566 L 147.086 168.566 147.163 166.667 L 147.240 164.768 143.888 164.824 L 140.537 164.881 143.746 164.963 L 146.955 165.046 146.955 166.740 L 146.955 168.435 141.847 168.435 L 136.739 168.435 136.739 158.754 L 136.739 149.073 138.638 148.983 L 140.537 148.893 138.630 148.841 C 137.301 148.804,136.684 148.888,136.596 149.117 M173.587 148.963 C 173.491 149.059,173.414 149.265,173.416 149.422 C 173.418 149.599,173.495 149.588,173.620 149.391 C 173.737 149.207,174.633 149.038,175.777 148.984 L 177.734 148.893 175.748 148.841 C 174.655 148.812,173.683 148.867,173.587 148.963 M188.010 148.978 C 188.475 149.035,189.300 149.036,189.844 148.980 C 190.387 148.923,190.007 148.876,188.998 148.874 C 187.990 148.873,187.545 148.920,188.010 148.978 M195.325 148.985 C 195.258 149.093,195.811 149.147,196.554 149.106 C 198.787 148.981,199.059 148.862,197.199 148.824 C 196.235 148.805,195.392 148.877,195.325 148.985 M238.376 148.950 C 239.914 149.146,241.985 149.166,241.872 148.985 C 241.805 148.877,240.844 148.806,239.736 148.828 C 238.628 148.849,238.016 148.904,238.376 148.950 M253.126 148.984 C 254.971 149.029,257.918 149.029,259.675 148.984 C 261.431 148.939,259.921 148.902,256.320 148.902 C 252.718 148.902,251.281 148.939,253.126 148.984 M156.254 150.336 L 155.468 150.511 156.123 150.694 C 156.971 150.931,158.991 150.904,159.648 150.647 C 160.676 150.245,157.829 149.984,156.254 150.336 M175.616 150.557 C 175.717 150.737,175.714 151.024,175.609 151.194 C 175.476 151.408,175.349 151.348,175.195 150.998 C 175.000 150.552,174.986 150.562,175.085 151.081 C 175.146 151.405,175.087 151.670,174.954 151.670 C 174.821 151.670,174.790 151.982,174.886 152.364 C 175.008 152.849,174.970 153.002,174.763 152.874 C 174.565 152.752,174.524 152.842,174.640 153.145 C 174.791 153.537,174.849 153.512,175.059 152.963 C 175.193 152.612,175.479 151.990,175.696 151.581 C 176.010 150.985,176.023 150.776,175.760 150.533 C 175.508 150.301,175.474 150.306,175.616 150.557 M221.550 150.550 C 222.021 150.608,222.728 150.607,223.122 150.547 C 223.516 150.488,223.130 150.440,222.266 150.441 C 221.401 150.443,221.079 150.492,221.550 150.550 M239.824 150.928 C 239.893 152.268,240.258 153.091,240.550 152.568 C 240.737 152.235,240.730 152.062,240.528 151.994 C 240.369 151.941,240.294 151.755,240.361 151.580 C 240.428 151.405,240.328 151.049,240.137 150.789 C 239.816 150.349,239.794 150.359,239.824 150.928 M251.644 150.557 C 251.577 150.665,252.896 150.722,254.576 150.685 C 260.210 150.558,260.807 150.462,256.270 150.411 C 253.793 150.383,251.711 150.449,251.644 150.557 M138.372 158.808 L 138.441 166.994 141.912 166.994 C 144.051 166.994,145.383 166.894,145.384 166.732 C 145.384 166.572,144.086 166.464,142.044 166.454 L 138.703 166.438 142.109 166.597 L 145.514 166.756 142.109 166.810 L 138.703 166.864 138.783 158.743 C 138.838 153.111,138.777 150.622,138.583 150.622 C 138.389 150.622,138.324 153.137,138.372 158.808 M188.605 158.764 C 188.605 165.162,188.675 166.883,188.933 166.798 C 189.180 166.716,189.292 164.925,189.391 159.507 C 189.463 155.557,189.609 152.191,189.716 152.027 C 189.836 151.842,189.740 151.743,189.464 151.765 C 189.213 151.785,188.972 151.575,188.912 151.285 C 188.820 150.835,188.861 150.815,189.236 151.126 C 189.607 151.434,189.642 151.424,189.500 151.052 C 189.409 150.816,189.171 150.622,188.970 150.622 C 188.666 150.622,188.605 151.979,188.605 158.764 M196.787 157.839 C 196.743 163.133,196.638 165.274,196.411 165.501 C 196.167 165.745,196.169 165.815,196.419 165.815 C 196.970 165.815,196.998 165.360,196.922 157.822 L 196.848 150.491 196.787 157.839 M154.639 151.076 C 154.732 151.226,154.632 151.494,154.418 151.672 C 154.203 151.850,154.028 151.908,154.028 151.801 C 154.028 151.694,153.852 151.751,153.637 151.929 C 153.423 152.108,153.320 152.371,153.409 152.515 C 153.498 152.659,153.444 152.855,153.289 152.950 C 153.108 153.062,153.094 153.262,153.251 153.511 C 153.458 153.836,153.496 153.827,153.500 153.447 C 153.502 153.200,153.861 152.591,154.298 152.093 C 154.853 151.461,154.999 151.130,154.782 150.995 C 154.598 150.882,154.539 150.915,154.639 151.076 M160.718 151.128 C 160.542 151.413,160.877 151.657,161.646 151.805 C 162.091 151.891,162.137 151.842,161.890 151.544 C 161.723 151.342,161.398 151.249,161.169 151.337 C 160.893 151.443,160.816 151.394,160.942 151.191 C 161.046 151.022,161.072 150.884,161.000 150.884 C 160.928 150.884,160.801 150.994,160.718 151.128 M219.253 151.146 C 219.253 151.307,219.143 151.370,219.007 151.287 C 218.634 151.056,217.697 152.192,217.876 152.658 C 217.979 152.926,217.928 153.001,217.726 152.876 C 217.558 152.772,217.420 152.805,217.420 152.949 C 217.420 153.466,217.909 153.501,218.070 152.995 C 218.160 152.711,218.581 152.186,219.006 151.828 C 219.435 151.468,219.662 151.106,219.516 151.016 C 219.372 150.926,219.253 150.985,219.253 151.146 M224.894 151.133 C 224.747 151.370,225.669 152.034,226.173 152.054 C 226.305 152.059,226.468 152.227,226.535 152.427 C 226.603 152.631,226.537 152.717,226.385 152.623 C 226.214 152.518,226.169 152.668,226.262 153.026 L 226.411 153.596 226.638 152.985 C 226.912 152.241,226.000 151.087,225.338 151.340 C 225.070 151.444,224.995 151.392,225.120 151.191 C 225.224 151.022,225.250 150.884,225.178 150.884 C 225.106 150.884,224.978 150.996,224.894 151.133 M253.893 151.079 L 255.919 151.168 255.992 158.950 L 256.066 166.732 256.127 158.808 L 256.189 150.884 254.028 150.937 L 251.866 150.990 253.893 151.079 M257.440 151.076 C 258.056 151.132,258.999 151.131,259.535 151.074 C 260.072 151.018,259.568 150.973,258.415 150.974 C 257.263 150.975,256.824 151.021,257.440 151.076 M178.164 151.408 C 178.164 151.624,178.265 152.037,178.389 152.325 C 178.531 152.655,178.614 152.703,178.614 152.456 C 178.614 152.240,178.513 151.827,178.389 151.539 C 178.247 151.209,178.164 151.160,178.164 151.408 M236.852 152.241 C 236.696 152.854,236.614 153.401,236.669 153.456 C 236.725 153.511,236.903 153.061,237.066 152.456 C 237.229 151.850,237.311 151.304,237.249 151.241 C 237.186 151.178,237.007 151.629,236.852 152.241 M192.029 151.801 C 192.029 151.945,192.198 152.358,192.403 152.718 C 192.609 153.078,192.778 153.255,192.778 153.111 C 192.778 152.967,192.609 152.554,192.403 152.194 C 192.198 151.834,192.029 151.657,192.029 151.801 M238.529 153.512 C 238.313 154.237,238.203 155.004,238.284 155.215 C 238.366 155.426,238.312 155.599,238.166 155.599 C 238.019 155.599,237.971 155.862,238.058 156.189 C 238.192 156.688,238.267 156.603,238.551 155.629 C 238.736 154.998,238.824 154.379,238.747 154.254 C 238.670 154.129,238.734 154.028,238.889 154.028 C 239.064 154.028,239.105 153.763,238.998 153.334 C 238.876 152.849,238.913 152.695,239.121 152.823 C 239.312 152.941,239.362 152.862,239.262 152.600 C 239.027 151.989,238.954 152.079,238.529 153.512 M176.227 152.610 C 175.918 152.919,176.000 153.292,176.332 153.087 C 176.538 152.960,176.587 153.098,176.489 153.530 C 176.287 154.419,176.909 156.159,177.178 155.458 C 177.286 155.176,177.256 154.916,177.109 154.867 C 176.965 154.819,176.906 154.626,176.978 154.438 C 177.150 153.989,176.480 152.357,176.227 152.610 M189.759 152.758 C 189.635 152.959,189.688 152.989,189.919 152.846 C 190.173 152.689,190.220 152.752,190.093 153.081 C 189.977 153.384,190.020 153.470,190.224 153.343 C 190.418 153.224,190.475 153.293,190.382 153.536 C 190.302 153.744,190.440 154.310,190.689 154.791 C 191.053 155.494,191.176 155.580,191.311 155.227 C 191.425 154.932,191.380 154.848,191.177 154.974 C 190.973 155.100,190.930 155.015,191.046 154.712 C 191.159 154.416,191.118 154.324,190.926 154.443 C 190.748 154.553,190.684 154.481,190.762 154.260 C 191.015 153.547,190.109 152.191,189.759 152.758 M250.426 152.618 C 251.946 152.813,254.356 152.834,254.355 152.652 C 254.355 152.544,253.324 152.473,252.063 152.495 C 250.802 152.517,250.065 152.572,250.426 152.618 M258.284 152.652 C 258.283 152.760,259.020 152.816,259.921 152.775 C 262.705 152.651,262.973 152.536,260.576 152.495 C 259.316 152.473,258.284 152.544,258.284 152.652 M155.617 153.354 C 155.288 153.704,155.081 154.146,155.158 154.336 C 155.252 154.573,155.302 154.544,155.317 154.243 C 155.328 154.001,155.648 153.559,156.027 153.261 C 156.407 152.962,156.604 152.718,156.466 152.718 C 156.328 152.718,155.946 153.004,155.617 153.354 M162.323 153.090 C 162.085 153.712,162.102 153.825,162.410 153.635 C 162.580 153.529,162.693 155.284,162.731 158.662 L 162.791 163.851 162.868 158.846 C 162.941 154.077,162.744 151.993,162.323 153.090 M220.040 153.372 C 219.702 153.731,219.476 154.069,219.536 154.123 C 219.597 154.177,219.921 153.882,220.256 153.469 C 221.006 152.544,220.874 152.485,220.040 153.372 M242.866 152.980 C 242.866 153.196,242.967 153.608,243.091 153.897 C 243.233 154.227,243.316 154.275,243.316 154.028 C 243.316 153.811,243.215 153.399,243.091 153.111 C 242.949 152.780,242.866 152.732,242.866 152.980 M150.994 158.612 C 150.994 161.493,151.032 162.708,151.079 161.311 C 151.126 159.914,151.126 157.556,151.080 156.072 C 151.033 154.587,150.994 155.730,150.994 158.612 M215.434 158.612 C 215.434 161.493,215.472 162.708,215.519 161.311 C 215.566 159.914,215.566 157.556,215.520 156.072 C 215.473 154.587,215.434 155.730,215.434 158.612 M164.615 158.743 C 164.615 161.552,164.654 162.701,164.701 161.297 C 164.748 159.892,164.748 157.593,164.701 156.189 C 164.654 154.784,164.615 155.933,164.615 158.743 M171.888 154.861 C 171.732 155.474,171.650 156.020,171.705 156.076 C 171.761 156.131,171.939 155.681,172.102 155.075 C 172.265 154.470,172.347 153.923,172.285 153.861 C 172.222 153.798,172.043 154.248,171.888 154.861 M217.195 158.874 C 217.195 162.027,217.284 163.904,217.420 163.589 C 217.544 163.301,217.645 161.179,217.645 158.874 C 217.645 156.568,217.544 154.447,217.420 154.158 C 217.284 153.843,217.195 155.720,217.195 158.874 M229.012 154.682 C 229.015 155.259,229.068 155.464,229.131 155.138 C 229.194 154.812,229.191 154.340,229.126 154.090 C 229.060 153.839,229.009 154.106,229.012 154.682 M240.919 154.110 C 240.826 154.353,240.872 154.551,241.021 154.551 C 241.173 154.551,241.220 154.782,241.126 155.075 C 241.027 155.388,241.079 155.599,241.255 155.599 C 241.417 155.599,241.479 155.715,241.392 155.856 C 241.304 155.997,241.377 156.593,241.553 157.181 C 241.823 158.083,241.914 158.178,242.131 157.790 C 242.307 157.476,242.297 157.299,242.100 157.233 C 241.941 157.180,241.865 156.995,241.932 156.822 C 241.998 156.648,241.836 155.868,241.570 155.088 C 241.231 154.088,241.038 153.800,240.919 154.110 M152.892 154.464 C 152.606 154.751,152.688 162.885,152.980 163.065 C 153.150 163.170,153.242 161.670,153.242 158.758 C 153.242 156.300,153.202 154.289,153.154 154.289 C 153.106 154.289,152.988 154.368,152.892 154.464 M173.696 155.509 C 173.551 156.036,173.493 156.566,173.568 156.688 C 173.643 156.810,173.578 156.909,173.422 156.909 C 173.248 156.909,173.206 157.174,173.314 157.603 C 173.437 158.091,173.399 158.242,173.188 158.111 C 173.023 158.009,172.888 158.044,172.888 158.188 C 172.888 158.332,172.997 158.517,173.129 158.599 C 173.455 158.800,174.182 156.251,173.999 155.551 C 173.900 155.173,173.950 155.053,174.154 155.179 C 174.348 155.299,174.399 155.221,174.298 154.958 C 174.071 154.368,173.991 154.442,173.696 155.509 M154.919 158.743 C 154.919 160.976,154.959 161.889,155.008 160.773 C 155.057 159.656,155.057 157.829,155.008 156.713 C 154.959 155.596,154.919 156.509,154.919 158.743 M219.358 158.481 C 219.358 160.570,219.398 161.424,219.448 160.380 C 219.498 159.335,219.498 157.626,219.448 156.582 C 219.398 155.537,219.358 156.392,219.358 158.481 M160.679 158.743 C 160.679 160.688,160.720 161.483,160.771 160.511 C 160.821 159.538,160.821 157.947,160.771 156.974 C 160.720 156.002,160.679 156.798,160.679 158.743 M193.601 155.468 C 193.601 155.612,193.769 156.025,193.975 156.385 C 194.181 156.745,194.349 156.922,194.349 156.778 C 194.349 156.634,194.181 156.221,193.975 155.861 C 193.769 155.501,193.601 155.324,193.601 155.468 M191.331 155.902 C 191.206 156.103,191.260 156.132,191.491 155.990 C 191.745 155.833,191.791 155.896,191.665 156.225 C 191.552 156.520,191.593 156.612,191.786 156.493 C 191.963 156.384,192.028 156.456,191.949 156.676 C 191.778 157.160,192.488 158.540,192.807 158.343 C 192.945 158.258,193.058 158.129,193.058 158.057 C 193.058 157.985,192.920 158.011,192.752 158.115 C 192.544 158.244,192.501 158.160,192.618 157.855 C 192.731 157.560,192.690 157.468,192.497 157.587 C 192.320 157.696,192.255 157.624,192.333 157.404 C 192.586 156.691,191.681 155.335,191.331 155.902 M175.253 156.759 C 174.840 157.845,174.953 158.205,175.391 157.197 C 175.604 156.707,175.720 156.248,175.650 156.178 C 175.580 156.108,175.401 156.369,175.253 156.759 M239.598 156.560 C 239.502 156.656,239.426 156.862,239.428 157.018 C 239.430 157.174,239.540 157.131,239.672 156.923 C 239.859 156.626,239.951 156.700,240.092 157.262 C 240.191 157.658,240.323 157.931,240.385 157.869 C 240.554 157.699,240.181 156.385,239.963 156.385 C 239.858 156.385,239.694 156.464,239.598 156.560 M179.736 157.171 C 179.736 157.387,179.837 157.800,179.961 158.088 C 180.103 158.418,180.186 158.466,180.186 158.219 C 180.186 158.003,180.085 157.590,179.961 157.302 C 179.819 156.972,179.736 156.923,179.736 157.171 M177.765 157.840 C 177.654 158.129,177.691 158.379,177.852 158.433 C 178.005 158.484,178.065 158.631,177.986 158.760 C 177.906 158.888,177.985 159.475,178.161 160.063 C 178.431 160.964,178.522 161.060,178.739 160.672 C 178.915 160.357,178.905 160.181,178.708 160.115 C 178.549 160.062,178.473 159.875,178.541 159.700 C 178.608 159.524,178.504 158.922,178.310 158.361 C 178.016 157.510,177.925 157.424,177.765 157.840 M236.991 158.876 C 236.760 159.686,236.637 160.517,236.716 160.724 C 236.795 160.931,236.733 161.100,236.578 161.100 C 236.417 161.100,236.372 161.297,236.473 161.559 C 236.600 161.886,236.784 161.579,237.118 160.483 C 237.375 159.639,237.513 158.830,237.424 158.685 C 237.334 158.540,237.388 158.344,237.543 158.248 C 237.698 158.152,237.732 157.924,237.617 157.738 C 237.484 157.523,237.260 157.929,236.991 158.876 M244.438 158.743 C 244.438 158.959,244.539 159.371,244.663 159.659 C 244.805 159.990,244.888 160.038,244.888 159.790 C 244.888 159.574,244.787 159.162,244.663 158.874 C 244.521 158.543,244.438 158.495,244.438 158.743 M190.875 158.917 C 190.779 159.013,190.701 161.189,190.701 163.751 L 190.701 168.411 188.997 168.508 L 187.293 168.605 189.062 168.585 L 190.832 168.566 190.963 163.720 C 191.108 158.337,191.114 158.678,190.875 158.917 M193.261 159.292 C 193.088 159.782,194.057 161.685,194.378 161.487 C 194.517 161.401,194.630 161.272,194.630 161.200 C 194.630 161.128,194.492 161.155,194.324 161.259 C 194.117 161.386,194.072 161.305,194.184 161.012 C 194.276 160.772,194.230 160.576,194.082 160.576 C 193.934 160.576,193.869 160.486,193.937 160.377 C 194.005 160.267,193.909 159.895,193.725 159.551 C 193.486 159.104,193.353 159.030,193.261 159.292 M238.797 159.419 C 238.423 160.392,238.604 160.578,239.882 160.531 L 241.126 160.485 239.989 160.383 C 238.931 160.289,238.862 160.237,239.011 159.643 C 239.190 158.930,239.043 158.777,238.797 159.419 M242.492 159.346 C 242.398 159.591,242.444 159.790,242.593 159.790 C 242.745 159.790,242.791 160.021,242.698 160.314 C 242.605 160.608,242.651 160.838,242.803 160.838 C 242.952 160.838,243.014 160.996,242.940 161.189 C 242.866 161.382,242.987 161.691,243.210 161.876 C 243.746 162.321,243.724 161.918,243.118 160.198 C 242.788 159.260,242.615 159.025,242.492 159.346 M176.555 159.906 C 176.555 160.161,176.191 160.317,175.442 160.384 L 174.329 160.485 175.573 160.531 C 176.658 160.570,176.817 160.509,176.817 160.052 C 176.817 159.764,176.758 159.528,176.686 159.528 C 176.614 159.528,176.555 159.699,176.555 159.906 M172.146 160.794 C 171.746 162.130,171.760 162.279,172.245 161.876 C 172.468 161.691,172.582 161.362,172.498 161.145 C 172.415 160.927,172.462 160.678,172.603 160.590 C 172.745 160.503,172.769 160.283,172.656 160.102 C 172.523 159.886,172.347 160.125,172.146 160.794 M227.034 160.502 L 228.920 160.599 229.020 162.030 L 229.120 163.460 229.098 161.953 L 229.077 160.445 227.112 160.425 L 225.147 160.406 227.034 160.502 M191.767 160.707 C 191.767 160.851,191.936 161.264,192.141 161.624 C 192.347 161.984,192.516 162.161,192.516 162.017 C 192.516 161.873,192.347 161.460,192.141 161.100 C 191.936 160.740,191.767 160.563,191.767 160.707 M225.082 161.755 C 225.085 162.331,225.139 162.536,225.202 162.210 C 225.264 161.885,225.262 161.413,225.196 161.163 C 225.131 160.912,225.080 161.179,225.082 161.755 M179.175 162.083 C 179.174 162.191,177.534 162.279,175.529 162.279 C 171.672 162.279,171.461 162.323,171.747 163.069 C 171.912 163.498,171.948 163.489,172.143 162.963 C 172.350 162.403,172.468 162.385,175.822 162.426 C 178.163 162.454,179.318 162.373,179.384 162.177 C 179.437 162.017,179.412 161.886,179.328 161.886 C 179.244 161.886,179.175 161.974,179.175 162.083 M236.074 162.111 C 236.148 162.392,236.903 162.459,239.610 162.426 C 242.585 162.390,243.084 162.444,243.297 162.824 C 243.474 163.142,243.596 163.177,243.736 162.950 C 244.094 162.370,243.585 162.279,239.992 162.279 C 237.924 162.279,236.320 162.168,236.195 162.017 C 236.062 161.857,236.015 161.893,236.074 162.111 M194.804 162.524 C 194.694 162.809,194.738 162.898,194.929 162.780 C 195.106 162.670,195.171 162.742,195.093 162.963 C 194.921 163.447,195.632 164.827,195.951 164.630 C 196.089 164.544,196.202 164.416,196.202 164.344 C 196.202 164.272,196.064 164.298,195.895 164.402 C 195.687 164.531,195.644 164.447,195.761 164.142 C 195.878 163.839,195.835 163.754,195.630 163.880 C 195.436 164.000,195.380 163.930,195.474 163.684 C 195.555 163.473,195.475 163.027,195.296 162.693 C 195.017 162.172,194.948 162.148,194.804 162.524 M179.352 163.044 C 179.245 163.321,179.250 163.615,179.362 163.699 C 179.475 163.782,179.570 163.969,179.573 164.113 C 179.597 165.360,180.747 167.828,180.747 166.633 C 180.747 166.472,180.621 166.339,180.467 166.339 C 180.313 166.339,180.246 166.133,180.318 165.881 C 180.525 165.153,179.594 162.418,179.352 163.044 M181.307 162.934 C 181.307 163.150,181.409 163.563,181.532 163.851 C 181.674 164.181,181.758 164.229,181.758 163.982 C 181.758 163.766,181.656 163.353,181.532 163.065 C 181.391 162.735,181.307 162.686,181.307 162.934 M235.410 164.248 C 235.198 164.974,235.089 165.819,235.169 166.126 C 235.269 166.507,235.219 166.624,235.012 166.496 C 234.845 166.393,234.709 166.433,234.709 166.586 C 234.709 166.738,234.829 166.863,234.977 166.863 C 235.324 166.863,235.818 165.568,235.644 165.115 C 235.571 164.924,235.627 164.768,235.770 164.768 C 235.919 164.768,235.954 164.473,235.854 164.074 C 235.732 163.585,235.769 163.435,235.980 163.565 C 236.145 163.667,236.280 163.633,236.280 163.489 C 236.280 162.651,235.740 163.123,235.410 164.248 M153.146 163.853 C 153.045 164.117,153.054 164.401,153.167 164.485 C 153.280 164.568,153.411 164.813,153.459 165.029 C 153.605 165.696,154.317 166.312,154.750 166.146 C 155.020 166.043,155.097 166.093,154.974 166.292 C 154.849 166.494,154.931 166.540,155.221 166.428 C 155.715 166.239,155.212 165.827,154.330 165.698 C 154.092 165.663,153.880 165.410,153.859 165.136 C 153.781 164.093,153.351 163.320,153.146 163.853 M174.663 164.174 C 175.279 164.229,176.222 164.228,176.759 164.172 C 177.295 164.116,176.791 164.071,175.639 164.071 C 174.486 164.072,174.047 164.118,174.663 164.174 M237.761 164.178 C 237.694 164.286,238.306 164.341,239.121 164.301 C 241.679 164.173,241.988 164.062,239.898 164.021 C 238.790 163.999,237.828 164.070,237.761 164.178 M226.326 164.470 C 226.326 164.594,226.035 164.987,225.680 165.342 C 225.085 165.937,225.075 165.985,225.553 165.950 C 225.839 165.929,226.218 165.755,226.396 165.563 C 226.655 165.284,226.648 165.255,226.358 165.420 C 226.110 165.561,226.038 165.512,226.128 165.262 C 226.201 165.062,226.389 164.927,226.546 164.961 C 226.703 164.995,226.764 164.848,226.682 164.633 C 226.517 164.204,226.326 164.116,226.326 164.470 M244.069 164.572 C 243.972 164.824,243.988 165.029,244.103 165.029 C 244.219 165.029,244.313 165.383,244.313 165.815 C 244.313 166.646,244.545 167.068,244.839 166.774 C 244.936 166.677,244.842 166.039,244.630 165.356 C 244.346 164.440,244.198 164.235,244.069 164.572 M246.136 165.029 C 246.228 165.534,246.406 166.182,246.532 166.470 C 246.689 166.830,246.709 166.707,246.595 166.077 C 246.503 165.573,246.325 164.925,246.199 164.637 C 246.042 164.277,246.022 164.400,246.136 165.029 M177.902 164.768 C 177.902 164.984,178.003 165.396,178.127 165.684 C 178.269 166.015,178.352 166.063,178.352 165.815 C 178.352 165.599,178.251 165.187,178.127 164.898 C 177.985 164.568,177.902 164.520,177.902 164.768 M157.370 164.953 C 157.696 165.015,158.168 165.013,158.418 164.947 C 158.669 164.882,158.402 164.831,157.826 164.834 C 157.250 164.836,157.045 164.890,157.370 164.953 M161.084 165.488 C 160.737 165.884,160.622 166.061,160.829 165.881 C 161.036 165.701,161.306 165.553,161.430 165.553 C 161.554 165.553,161.570 165.701,161.467 165.881 C 161.363 166.061,161.378 166.117,161.500 166.006 C 161.681 165.842,161.904 164.768,161.757 164.768 C 161.734 164.768,161.431 165.092,161.084 165.488 M217.837 164.990 C 217.640 165.308,218.709 166.383,219.027 166.186 C 219.185 166.089,219.054 165.768,218.704 165.395 C 218.040 164.689,218.027 164.683,217.837 164.990 M237.216 165.441 C 237.119 165.825,237.091 166.190,237.153 166.251 C 237.215 166.313,237.344 166.050,237.440 165.666 C 237.537 165.282,237.565 164.917,237.503 164.855 C 237.442 164.794,237.312 165.057,237.216 165.441 M170.709 165.567 C 170.463 166.488,170.491 166.863,170.808 166.863 C 170.960 166.863,171.004 166.732,170.905 166.572 C 170.806 166.412,170.842 166.205,170.985 166.113 C 171.128 166.022,171.163 165.717,171.063 165.436 C 170.895 164.968,170.867 164.979,170.709 165.567 M155.744 166.576 C 155.002 166.866,156.078 167.122,157.957 167.103 C 159.176 167.091,161.054 166.675,160.139 166.620 C 159.971 166.609,159.617 166.531,159.353 166.445 C 158.954 166.316,158.940 166.337,159.267 166.572 C 159.562 166.785,159.206 166.855,157.826 166.855 C 156.546 166.855,156.111 166.778,156.385 166.601 C 156.845 166.304,156.476 166.289,155.744 166.576 M220.078 166.571 C 219.551 166.906,221.888 167.194,223.349 166.975 C 224.347 166.825,224.480 166.746,224.093 166.529 C 223.769 166.348,223.473 166.359,223.144 166.565 C 222.554 166.933,221.436 166.954,221.218 166.601 C 221.021 166.282,220.554 166.270,220.078 166.571 M182.580 167.986 C 182.580 168.327,182.230 168.429,180.812 168.503 L 179.044 168.594 180.820 168.645 C 182.518 168.695,183.326 168.308,182.744 167.725 C 182.654 167.635,182.580 167.753,182.580 167.986 M194.900 167.813 C 194.883 168.457,195.659 168.721,197.292 168.629 L 198.952 168.536 197.197 168.485 C 195.837 168.446,195.382 168.332,195.175 167.976 C 195.028 167.724,194.904 167.651,194.900 167.813 M232.679 168.173 C 232.761 168.475,233.236 168.571,234.730 168.586 L 236.673 168.607 234.847 168.508 C 233.836 168.453,232.920 168.268,232.797 168.094 C 232.639 167.873,232.605 167.896,232.679 168.173 M243.158 168.173 C 243.239 168.475,243.714 168.571,245.208 168.586 L 247.151 168.607 245.325 168.508 C 244.314 168.453,243.399 168.268,243.275 168.094 C 243.117 167.873,243.083 167.896,243.158 168.173 M170.399 168.435 L 168.566 168.604 170.319 168.651 C 171.283 168.676,172.144 168.579,172.233 168.435 C 172.322 168.291,172.359 168.194,172.314 168.219 C 172.270 168.245,171.408 168.342,170.399 168.435 M224.754 168.435 C 224.215 168.608,224.192 168.648,224.623 168.667 C 224.912 168.679,225.324 168.575,225.540 168.435 C 225.999 168.138,225.681 168.138,224.754 168.435 M256.320 168.435 L 254.486 168.604 256.239 168.651 C 257.203 168.676,258.064 168.579,258.153 168.435 C 258.242 168.291,258.279 168.194,258.234 168.219 C 258.190 168.245,257.328 168.342,256.320 168.435 M155.337 168.710 C 155.994 168.907,159.712 169.043,159.507 168.862 C 159.447 168.809,158.337 168.709,157.040 168.639 C 155.743 168.570,154.977 168.601,155.337 168.710 M221.278 168.886 C 221.743 168.944,222.568 168.945,223.111 168.888 C 223.655 168.831,223.274 168.784,222.266 168.783 C 221.257 168.782,220.813 168.828,221.278 168.886 " stroke="none" fill="#94a4c4" fill-rule="evenodd"></path><path id="path4" d="M355.730 0.262 C 355.730 0.406,355.435 0.524,355.075 0.524 C 354.715 0.524,354.420 0.642,354.420 0.786 C 354.420 0.930,354.715 1.048,355.075 1.048 C 355.483 1.048,355.730 1.196,355.730 1.441 C 355.730 1.685,355.483 1.834,355.075 1.834 C 354.715 1.834,354.420 1.952,354.420 2.096 C 354.420 2.240,354.715 2.358,355.075 2.358 C 356.601 2.358,355.574 2.886,353.962 2.930 C 352.306 2.975,352.281 2.984,353.569 3.075 C 354.325 3.128,354.944 3.283,354.944 3.419 C 354.944 3.556,355.121 3.667,355.337 3.667 C 355.553 3.667,355.730 3.785,355.730 3.929 C 355.730 4.073,355.553 4.191,355.337 4.191 C 355.121 4.191,354.944 4.368,354.944 4.584 C 354.944 4.868,355.235 4.977,355.992 4.977 C 356.568 4.977,357.040 5.095,357.040 5.239 C 357.040 5.383,356.745 5.501,356.385 5.501 C 356.025 5.501,355.730 5.613,355.730 5.750 C 355.730 5.887,355.052 6.041,354.224 6.093 C 352.969 6.172,353.079 6.196,354.879 6.237 C 356.770 6.281,358.163 6.811,356.385 6.811 C 356.025 6.811,355.730 6.929,355.730 7.073 C 355.730 7.217,356.025 7.335,356.385 7.335 C 356.793 7.335,357.040 7.483,357.040 7.728 C 357.040 7.972,356.793 8.120,356.385 8.120 C 356.025 8.120,355.730 8.238,355.730 8.382 C 355.730 8.527,356.025 8.644,356.385 8.644 C 356.909 8.644,357.040 8.775,357.040 9.299 C 357.040 9.780,357.180 9.954,357.564 9.954 C 357.852 9.954,358.088 10.072,358.088 10.216 C 358.088 10.360,357.852 10.478,357.564 10.478 C 357.273 10.478,357.040 10.653,357.040 10.871 C 357.040 11.089,357.273 11.264,357.564 11.264 C 357.852 11.264,358.088 11.382,358.088 11.526 C 358.088 11.670,357.852 11.788,357.564 11.788 C 357.273 11.788,357.040 11.962,357.040 12.181 C 357.040 12.399,357.273 12.574,357.564 12.574 C 358.044 12.574,358.088 12.748,358.088 14.669 L 358.088 16.765 357.105 16.807 L 356.123 16.849 357.038 16.959 C 357.541 17.020,358.040 17.207,358.147 17.376 C 358.291 17.603,358.343 17.597,358.346 17.354 C 358.348 17.174,358.585 17.027,358.874 17.027 C 359.162 17.027,359.398 17.145,359.398 17.289 C 359.398 17.433,359.692 17.551,360.052 17.551 C 360.570 17.551,360.707 17.683,360.707 18.184 C 360.707 18.532,360.855 18.886,361.035 18.970 C 361.297 19.092,361.297 19.153,361.035 19.275 C 360.652 19.454,360.590 20.170,360.958 20.170 C 361.096 20.170,361.249 21.025,361.299 22.069 L 361.389 23.969 361.441 22.069 C 361.485 20.450,362.017 19.180,362.017 20.694 C 362.017 21.078,362.192 21.218,362.672 21.218 C 363.079 21.218,363.327 21.367,363.327 21.611 C 363.327 21.855,363.079 22.004,362.672 22.004 C 362.312 22.004,362.017 22.122,362.017 22.266 C 362.017 22.410,362.606 22.528,363.327 22.528 C 364.316 22.528,364.637 22.624,364.637 22.921 C 364.637 23.165,364.389 23.314,363.982 23.314 C 363.621 23.314,363.327 23.432,363.327 23.576 C 363.327 23.720,363.621 23.838,363.982 23.838 C 364.342 23.838,364.637 23.955,364.637 24.100 C 364.637 24.244,364.342 24.361,363.982 24.361 C 363.574 24.361,363.327 24.510,363.327 24.754 C 363.327 25.045,363.632 25.147,364.506 25.147 C 365.154 25.147,365.684 25.265,365.684 25.409 C 365.684 25.553,365.449 25.671,365.160 25.671 C 364.869 25.671,364.637 25.846,364.637 26.064 C 364.637 26.355,364.942 26.457,365.815 26.457 C 366.464 26.457,366.994 26.575,366.994 26.719 C 366.994 26.863,366.699 26.981,366.339 26.981 C 365.979 26.981,365.684 27.099,365.684 27.243 C 365.684 27.387,366.274 27.505,366.994 27.505 C 367.984 27.505,368.304 27.601,368.304 27.898 C 368.304 28.142,368.056 28.291,367.649 28.291 C 367.289 28.291,366.994 28.409,366.994 28.553 C 366.994 28.697,367.289 28.815,367.649 28.815 C 368.173 28.815,368.304 28.946,368.304 29.470 C 368.304 30.081,368.391 30.124,369.614 30.124 C 372.344 30.124,370.856 30.650,367.976 30.702 C 365.123 30.754,365.102 30.759,367.322 30.843 C 368.582 30.891,369.614 31.044,369.614 31.182 C 369.614 31.321,369.908 31.434,370.269 31.434 C 370.629 31.434,370.923 31.552,370.923 31.696 C 370.923 31.840,370.747 31.958,370.530 31.958 C 370.314 31.958,370.138 32.135,370.138 32.351 C 370.138 32.657,370.487 32.744,371.709 32.744 C 372.582 32.744,373.281 32.860,373.281 33.006 C 373.281 33.150,372.986 33.268,372.626 33.268 C 372.219 33.268,371.971 33.416,371.971 33.661 C 371.971 33.905,372.219 34.054,372.626 34.054 C 373.106 34.054,373.281 34.193,373.281 34.578 C 373.281 35.002,373.456 35.102,374.198 35.102 C 375.113 35.102,375.506 35.685,374.787 35.977 C 374.544 36.075,374.538 36.165,374.761 36.326 C 374.926 36.445,375.117 36.837,375.183 37.197 C 375.303 37.841,375.306 37.840,375.341 37.132 C 375.382 36.303,377.210 35.983,377.210 36.804 C 377.210 37.049,376.963 37.197,376.555 37.197 C 376.195 37.197,375.900 37.315,375.900 37.459 C 375.900 37.609,376.686 37.721,377.734 37.721 C 378.782 37.721,379.568 37.833,379.568 37.983 C 379.568 38.127,379.332 38.245,379.044 38.245 C 378.753 38.245,378.520 38.420,378.520 38.638 C 378.520 38.929,378.826 39.031,379.699 39.031 C 380.347 39.031,380.878 39.149,380.878 39.293 C 380.878 39.437,380.583 39.555,380.223 39.555 C 379.815 39.555,379.568 39.703,379.568 39.948 C 379.568 40.262,379.961 40.341,381.532 40.341 C 383.322 40.341,383.497 40.387,383.497 40.864 C 383.497 41.438,382.835 41.586,382.622 41.061 C 382.519 40.807,382.439 40.804,382.264 41.049 C 382.129 41.240,381.158 41.401,379.821 41.454 C 378.497 41.508,379.266 41.565,381.729 41.597 C 384.269 41.630,385.855 41.751,385.855 41.912 C 385.855 42.056,385.619 42.174,385.331 42.174 C 385.043 42.174,384.807 42.292,384.807 42.436 C 384.807 42.586,385.593 42.698,386.640 42.698 C 388.422 42.698,388.474 42.717,388.474 43.353 C 388.474 43.713,388.592 44.008,388.736 44.008 C 388.880 44.008,388.998 44.126,388.998 44.270 C 388.998 44.425,387.848 44.554,386.182 44.587 L 383.366 44.642 386.107 44.728 C 387.885 44.783,388.919 44.925,389.050 45.131 C 389.206 45.377,389.253 45.375,389.256 45.121 C 389.258 44.924,389.616 44.794,390.155 44.794 C 390.647 44.794,391.119 44.941,391.203 45.121 C 391.325 45.383,391.386 45.383,391.508 45.121 C 391.807 44.482,392.142 44.808,392.181 45.776 C 392.212 46.566,392.241 46.617,392.329 46.038 L 392.438 45.318 395.564 45.318 C 397.474 45.318,398.690 45.420,398.690 45.580 C 398.690 45.724,398.396 45.842,398.035 45.842 C 397.628 45.842,397.380 45.990,397.380 46.234 C 397.380 46.525,397.684 46.627,398.542 46.627 C 399.608 46.627,399.712 46.687,399.812 47.348 C 399.872 47.744,399.939 37.253,399.961 24.034 L 400.000 0.000 377.865 0.000 C 363.283 0.000,355.730 0.089,355.730 0.262 M359.398 14.014 C 359.398 14.233,359.165 14.407,358.874 14.407 C 358.583 14.407,358.350 14.233,358.350 14.014 C 358.350 13.796,358.583 13.621,358.874 13.621 C 359.165 13.621,359.398 13.796,359.398 14.014 M359.398 15.586 C 359.398 16.110,359.528 16.241,360.052 16.241 C 360.413 16.241,360.707 16.359,360.707 16.503 C 360.707 16.647,360.177 16.765,359.528 16.765 C 358.356 16.765,358.350 16.760,358.350 15.848 C 358.350 15.106,358.449 14.931,358.874 14.931 C 359.258 14.931,359.398 15.106,359.398 15.586 M375.900 35.494 C 375.900 35.711,375.783 35.887,375.639 35.887 C 375.494 35.887,375.377 35.711,375.377 35.494 C 375.377 35.278,375.494 35.102,375.639 35.102 C 375.783 35.102,375.900 35.278,375.900 35.494 M384.807 40.602 C 384.807 40.747,384.630 40.864,384.414 40.864 C 384.198 40.864,384.021 40.747,384.021 40.602 C 384.021 40.458,384.198 40.341,384.414 40.341 C 384.630 40.341,384.807 40.458,384.807 40.602 M389.784 43.091 C 389.784 43.307,389.666 43.484,389.522 43.484 C 389.378 43.484,389.260 43.307,389.260 43.091 C 389.260 42.875,389.378 42.698,389.522 42.698 C 389.666 42.698,389.784 42.875,389.784 43.091 M392.141 44.270 C 392.141 44.414,391.493 44.532,390.701 44.532 C 389.908 44.532,389.260 44.414,389.260 44.270 C 389.260 44.126,389.908 44.008,390.701 44.008 C 391.493 44.008,392.141 44.126,392.141 44.270 M396.071 46.234 C 396.071 46.451,396.189 46.627,396.333 46.627 C 396.477 46.627,396.595 46.451,396.595 46.234 C 396.595 46.018,396.477 45.842,396.333 45.842 C 396.189 45.842,396.071 46.018,396.071 46.234 M209.160 120.236 C 209.160 128.808,209.193 132.315,209.234 128.029 C 209.274 123.743,209.274 116.729,209.234 112.443 C 209.193 108.157,209.160 111.663,209.160 120.236 M188.989 148.722 C 189.848 148.775,190.733 148.959,190.954 149.131 C 191.306 149.405,191.311 149.386,190.996 148.985 C 190.714 148.626,190.289 148.537,189.031 148.576 L 187.426 148.626 188.989 148.722 M195.199 148.865 C 194.883 149.246,194.645 157.696,194.951 157.695 C 195.056 157.695,195.174 155.720,195.213 153.307 L 195.285 148.919 196.988 148.768 L 198.690 148.617 197.085 148.572 C 196.043 148.542,195.381 148.645,195.199 148.865 M238.828 148.716 C 239.293 148.773,240.119 148.774,240.662 148.718 C 241.206 148.661,240.825 148.614,239.817 148.612 C 238.808 148.611,238.363 148.658,238.828 148.716 M253.257 148.722 C 255.030 148.768,257.859 148.768,259.544 148.722 C 261.228 148.676,259.777 148.639,256.320 148.639 C 252.862 148.640,251.484 148.677,253.257 148.722 M186.946 148.963 C 186.704 149.205,186.725 168.375,186.968 168.525 C 187.076 168.592,187.164 164.179,187.164 158.718 C 187.164 153.257,187.155 148.788,187.143 148.788 C 187.131 148.788,187.042 148.867,186.946 148.963 M262.825 150.622 C 262.825 151.703,262.872 152.145,262.928 151.604 C 262.985 151.064,262.985 150.180,262.928 149.640 C 262.872 149.100,262.825 149.542,262.825 150.622 M140.522 156.909 C 140.522 161.303,140.558 163.101,140.602 160.904 C 140.646 158.707,140.646 155.111,140.602 152.914 C 140.558 150.717,140.522 152.515,140.522 156.909 M249.751 150.884 L 249.771 152.849 251.932 152.925 L 254.093 153.001 254.093 160.849 C 254.093 165.165,254.181 168.697,254.289 168.697 C 254.398 168.697,254.427 165.131,254.355 160.773 L 254.224 152.849 252.074 152.773 L 249.924 152.697 249.828 150.808 L 249.731 148.919 249.751 150.884 M237.216 150.248 C 237.119 150.632,237.091 150.996,237.153 151.058 C 237.215 151.120,237.344 150.856,237.440 150.472 C 237.537 150.089,237.565 149.724,237.503 149.662 C 237.442 149.600,237.312 149.864,237.216 150.248 M191.505 150.229 C 191.505 150.373,191.674 150.786,191.880 151.146 C 192.085 151.506,192.254 151.683,192.254 151.539 C 192.254 151.395,192.085 150.982,191.880 150.622 C 191.674 150.262,191.505 150.085,191.505 150.229 M154.779 151.018 C 154.400 151.224,154.010 151.599,153.913 151.852 C 153.765 152.238,153.835 152.223,154.340 151.765 C 154.673 151.464,155.180 151.087,155.468 150.928 C 155.756 150.768,155.874 150.639,155.730 150.641 C 155.586 150.642,155.158 150.812,154.779 151.018 M175.166 151.161 C 175.050 151.603,175.092 151.644,175.397 151.391 C 175.814 151.045,175.891 150.622,175.538 150.622 C 175.411 150.622,175.243 150.865,175.166 151.161 M196.988 158.035 C 196.988 163.603,196.906 165.536,196.660 165.801 C 196.395 166.087,196.403 166.114,196.705 165.942 C 196.981 165.784,197.034 165.842,196.909 166.165 C 196.817 166.405,196.856 166.601,196.996 166.601 C 197.154 166.601,197.250 163.591,197.250 158.612 C 197.250 154.217,197.191 150.622,197.119 150.622 C 197.046 150.622,196.988 153.958,196.988 158.035 M221.153 150.813 C 221.693 150.869,222.577 150.869,223.117 150.813 C 223.657 150.756,223.215 150.710,222.135 150.710 C 221.054 150.710,220.612 150.756,221.153 150.813 M239.348 151.338 C 239.220 152.007,239.235 152.020,239.579 151.549 C 240.000 150.974,240.052 150.622,239.716 150.622 C 239.589 150.622,239.423 150.944,239.348 151.338 M188.867 151.252 C 188.867 151.472,189.112 151.782,189.411 151.943 C 189.905 152.207,189.929 152.185,189.671 151.704 C 189.293 150.997,188.867 150.758,188.867 151.252 M224.898 151.252 C 225.715 151.608,226.427 152.470,226.659 153.384 C 226.770 153.821,226.794 153.806,226.820 153.281 C 226.856 152.544,225.297 150.879,224.584 150.894 C 224.260 150.901,224.363 151.020,224.898 151.252 M161.170 151.473 C 161.407 151.654,161.783 152.155,162.004 152.587 C 162.227 153.021,162.407 153.183,162.408 152.950 C 162.410 152.428,161.431 151.146,161.031 151.146 C 160.870 151.146,160.932 151.293,161.170 151.473 M228.853 152.718 C 229.060 153.847,229.209 154.061,229.204 153.220 C 229.201 152.872,229.084 152.410,228.942 152.194 C 228.761 151.917,228.734 152.073,228.853 152.718 M220.734 152.914 C 220.667 153.022,221.253 153.070,222.037 153.020 C 223.031 152.958,223.676 153.061,224.173 153.363 L 224.885 153.797 224.267 153.257 C 223.644 152.714,221.017 152.459,220.734 152.914 M258.410 153.045 C 258.202 153.613,258.144 168.653,258.350 168.526 C 258.458 168.459,258.546 164.938,258.546 160.703 L 258.546 153.002 260.576 152.912 L 262.606 152.823 260.568 152.770 C 259.136 152.733,258.494 152.815,258.410 153.045 M159.688 153.491 C 159.848 153.714,160.110 154.132,160.270 154.420 C 160.430 154.709,160.564 154.804,160.568 154.632 C 160.573 154.459,160.311 154.041,159.987 153.702 C 159.663 153.363,159.528 153.268,159.688 153.491 M162.469 158.563 C 162.435 161.518,162.293 163.972,162.139 164.261 C 161.964 164.587,161.960 164.768,162.127 164.768 C 162.580 164.768,162.697 163.193,162.612 158.219 L 162.528 153.373 162.469 158.563 M224.815 154.813 C 224.815 155.318,224.869 155.524,224.935 155.272 C 225.001 155.020,225.001 154.607,224.935 154.355 C 224.869 154.103,224.815 154.309,224.815 154.813 M219.623 158.612 C 219.622 161.061,219.662 162.098,219.710 160.917 C 219.758 159.735,219.759 157.731,219.711 156.463 C 219.662 155.196,219.623 156.162,219.623 158.612 M150.729 158.743 C 150.729 161.120,150.768 162.092,150.817 160.904 C 150.866 159.715,150.866 157.770,150.817 156.582 C 150.768 155.393,150.729 156.365,150.729 158.743 M179.341 155.206 C 179.616 156.453,179.992 157.201,179.801 156.123 C 179.712 155.619,179.533 155.029,179.403 154.813 C 179.249 154.557,179.228 154.693,179.341 155.206 M226.268 155.791 C 226.884 155.847,227.827 155.846,228.363 155.790 C 228.900 155.733,228.396 155.688,227.243 155.689 C 226.090 155.690,225.651 155.736,226.268 155.791 M237.736 156.793 C 237.637 157.318,237.609 157.801,237.673 157.865 C 237.737 157.929,237.870 157.551,237.968 157.025 C 238.067 156.500,238.095 156.017,238.031 155.953 C 237.967 155.889,237.834 156.267,237.736 156.793 M175.407 157.055 C 175.311 157.304,175.295 157.570,175.370 157.645 C 175.446 157.720,175.509 157.615,175.512 157.411 C 175.515 157.105,175.560 157.109,175.769 157.433 C 175.909 157.649,176.023 157.708,176.023 157.564 C 176.023 156.952,175.585 156.591,175.407 157.055 M239.585 157.055 C 239.489 157.304,239.473 157.570,239.549 157.645 C 239.624 157.720,239.687 157.615,239.690 157.411 C 239.693 157.105,239.739 157.109,239.948 157.433 C 240.087 157.649,240.202 157.708,240.202 157.564 C 240.202 156.952,239.763 156.591,239.585 157.055 M244.176 157.171 C 244.176 157.387,244.277 157.800,244.401 158.088 C 244.543 158.418,244.626 158.466,244.626 158.219 C 244.626 158.003,244.525 157.590,244.401 157.302 C 244.259 156.972,244.176 156.923,244.176 157.171 M192.280 157.203 C 192.268 157.467,193.333 159.790,193.467 159.790 C 193.534 159.790,193.417 159.379,193.207 158.876 C 192.767 157.822,192.292 156.965,192.280 157.203 M174.773 159.037 C 174.622 159.632,174.595 160.015,174.714 159.889 C 174.958 159.628,175.350 157.957,175.167 157.957 C 175.101 157.957,174.924 158.443,174.773 159.037 M240.246 158.219 C 240.246 158.435,240.348 158.847,240.472 159.136 C 240.613 159.466,240.697 159.514,240.697 159.267 C 240.697 159.050,240.595 158.638,240.472 158.350 C 240.330 158.019,240.246 157.971,240.246 158.219 M234.185 161.624 C 234.022 162.229,233.940 162.776,234.002 162.839 C 234.065 162.901,234.243 162.451,234.399 161.838 C 234.555 161.226,234.637 160.679,234.581 160.624 C 234.526 160.569,234.348 161.019,234.185 161.624 M236.443 161.812 C 236.485 161.988,236.407 162.201,236.269 162.286 C 236.131 162.371,236.026 162.640,236.035 162.884 C 236.047 163.195,236.124 163.145,236.296 162.717 C 236.537 162.115,236.584 162.108,240.054 162.193 C 241.987 162.240,243.431 162.192,243.264 162.087 C 243.097 161.981,241.526 161.892,239.773 161.890 C 238.020 161.888,236.536 161.798,236.476 161.690 C 236.416 161.582,236.401 161.637,236.443 161.812 M172.192 162.087 C 172.025 162.192,173.086 162.246,174.549 162.206 C 178.640 162.094,179.117 161.974,175.639 161.932 C 173.910 161.911,172.359 161.981,172.192 162.087 M219.798 163.373 C 219.774 163.726,221.010 164.768,221.450 164.767 C 221.611 164.766,221.372 164.540,220.920 164.264 C 220.467 163.988,220.035 163.606,219.958 163.414 C 219.869 163.192,219.811 163.177,219.798 163.373 M224.492 163.418 C 224.492 163.588,224.109 163.961,223.641 164.246 C 223.173 164.532,222.931 164.766,223.103 164.767 C 223.573 164.768,224.915 163.532,224.689 163.305 C 224.581 163.197,224.492 163.248,224.492 163.418 M169.403 163.654 C 169.200 164.016,168.914 165.423,169.077 165.261 C 169.271 165.066,169.748 163.458,169.611 163.458 C 169.557 163.458,169.464 163.546,169.403 163.654 M228.978 163.851 C 228.956 164.139,228.878 164.669,228.804 165.029 L 228.669 165.684 228.950 165.042 C 229.104 164.688,229.182 164.158,229.124 163.863 C 229.020 163.341,229.016 163.340,228.978 163.851 M226.424 164.670 C 226.121 165.307,225.622 165.787,224.905 166.128 C 224.009 166.555,223.964 166.610,224.623 166.469 C 225.599 166.260,226.477 165.463,226.822 164.473 C 227.189 163.422,226.963 163.533,226.424 164.670 M173.411 164.440 C 173.411 164.548,174.148 164.604,175.049 164.563 C 177.832 164.439,178.101 164.324,175.704 164.283 C 174.443 164.261,173.412 164.332,173.411 164.440 M237.761 164.440 C 237.693 164.548,238.571 164.598,239.711 164.551 C 241.673 164.470,241.796 164.498,242.028 165.075 C 242.162 165.410,242.279 165.547,242.289 165.378 C 242.341 164.406,242.005 164.244,239.935 164.244 C 238.806 164.244,237.828 164.332,237.761 164.440 M147.214 166.786 C 147.143 167.824,147.180 168.578,147.296 168.462 C 147.411 168.346,147.469 167.496,147.424 166.575 L 147.342 164.898 147.214 166.786 M153.774 165.185 C 153.765 165.492,154.429 166.137,155.075 166.450 C 155.291 166.554,155.252 166.464,154.989 166.249 C 154.725 166.034,154.346 165.642,154.146 165.378 C 153.946 165.114,153.778 165.028,153.774 165.185 M161.252 165.568 C 160.975 165.847,160.808 166.134,160.880 166.206 C 160.952 166.278,161.287 166.043,161.625 165.683 C 162.341 164.921,161.998 164.815,161.252 165.568 M219.107 166.194 C 219.387 166.418,219.799 166.592,220.024 166.580 C 220.377 166.563,220.379 166.540,220.039 166.414 C 219.823 166.334,219.411 166.160,219.122 166.027 C 218.607 165.790,218.607 165.793,219.107 166.194 M138.576 166.405 C 138.573 166.821,138.889 166.858,142.043 166.806 L 145.514 166.750 142.250 166.667 C 140.051 166.611,138.920 166.480,138.783 166.265 C 138.643 166.045,138.579 166.088,138.576 166.405 M155.951 166.663 C 156.350 166.916,159.463 166.920,159.618 166.667 C 159.685 166.559,158.818 166.470,157.693 166.470 C 156.568 166.470,155.784 166.557,155.951 166.663 M221.676 166.782 C 221.929 166.848,222.341 166.848,222.593 166.782 C 222.845 166.716,222.639 166.662,222.135 166.662 C 221.631 166.662,221.424 166.716,221.676 166.782 M232.521 167.710 C 232.437 168.032,232.453 168.379,232.556 168.482 C 232.659 168.585,232.769 168.321,232.799 167.897 C 232.864 166.981,232.735 166.894,232.521 167.710 " stroke="none" fill="#6473a1" fill-rule="evenodd"></path></g></svg>